<svg class="h-10" viewBox="0 0 123 50" fill="none" xmlns="http://www.w3.org/2000/svg">
  <path d="M10.715 0.216797V49.4343H0.275391V0.216797H10.715Z" fill="currentColor" />
  <path
    d="M17.5491 23.5303C16.2783 23.5303 15.2735 23.933 14.2021 24.5351V23.9994C16.1416 21.1217 19.8912 18.5801 24.2392 18.5801C30.1942 18.5801 32.6693 21.927 32.6693 27.2799V49.3821H22.2333V28.015C22.2333 24.8676 20.5598 23.5303 17.5491 23.5303ZM21.8158 8.66123C21.8158 5.24781 24.4239 3.10889 27.4347 3.10889C30.5784 3.10889 33.1237 5.25151 33.1237 8.66123C33.1237 12.0747 30.3789 14.0806 27.4347 14.0806C24.5569 14.0806 21.8158 12.0747 21.8158 8.66123Z"
    fill="currentColor" />
  <path
    d="M48.7092 20.2501H48.7498C48.9345 19.8511 49.267 19.4891 49.7361 19.164C50.209 18.8389 50.8148 18.6763 51.5611 18.6763C52.2002 18.6763 52.7395 18.7835 53.1865 18.994C53.6335 19.2083 53.9955 19.4854 54.2726 19.8326C54.5534 20.1799 54.7528 20.5788 54.8711 21.0295C54.9893 21.4802 55.0521 21.9531 55.0521 22.4444V28.4881H52.6582V23.6413C52.6582 23.3753 52.6435 23.0798 52.6176 22.7547C52.5917 22.4296 52.5216 22.123 52.407 21.8386C52.2925 21.5541 52.1189 21.314 51.8788 21.1219C51.6386 20.9298 51.3136 20.8337 50.8998 20.8337C50.5008 20.8337 50.1647 20.9002 49.8913 21.0332C49.6179 21.1662 49.3926 21.3472 49.2116 21.5726C49.0306 21.7979 48.9013 22.0565 48.8237 22.3521C48.7424 22.6439 48.7055 22.9505 48.7055 23.2682V28.4955H46.3116V13.8296H48.7055V20.2501H48.7092ZM66.5631 28.4918H64.2875V26.955H64.2469C64.0215 27.4352 63.6743 27.849 63.2088 28.2036C62.7433 28.5546 62.1116 28.7319 61.3137 28.7319C60.6746 28.7319 60.1316 28.6285 59.6883 28.4216C59.2413 28.2147 58.8792 27.9376 58.6022 27.583C58.3214 27.2321 58.1219 26.8294 58.0037 26.375C57.8855 25.9243 57.8227 25.4515 57.8227 24.9601V18.9165H60.2165V23.7632C60.2165 24.0292 60.2313 24.3247 60.2572 24.6498C60.283 24.9749 60.3532 25.2815 60.4677 25.566C60.5822 25.8504 60.7522 26.0906 60.9849 26.2827C61.2176 26.4748 61.5464 26.5708 61.9713 26.5708C62.3702 26.5708 62.7064 26.5043 62.9798 26.3713C63.2531 26.2383 63.4785 26.0573 63.6595 25.832C63.8405 25.6066 63.9698 25.348 64.0474 25.0525C64.1287 24.7607 64.1656 24.454 64.1656 24.1363V18.9165H66.5594V28.4918H66.5631ZM68.5654 18.9165H71.1993L73.8739 25.5586H73.9145L76.3084 18.9165H78.8019L74.2729 30.5457C74.0992 30.9964 73.9108 31.3954 73.704 31.7316C73.4971 32.0714 73.257 32.3559 72.9762 32.5886C72.6954 32.8213 72.3667 32.995 71.9899 33.1058C71.6094 33.2203 71.155 33.2757 70.623 33.2757C69.9987 33.2757 69.3855 33.1945 68.787 33.0356L69.0862 30.8819C69.2709 30.9484 69.4667 31.0038 69.6736 31.0518C69.8805 31.0962 70.0874 31.122 70.3016 31.122C70.5935 31.122 70.841 31.0962 71.0405 31.0408C71.2399 30.989 71.4099 30.9041 71.5503 30.7932C71.6906 30.6787 71.8052 30.5347 71.9012 30.3536C71.9936 30.1726 72.0933 29.9584 72.2004 29.7072L72.6585 28.5694L68.5654 18.9165ZM89.9436 18.9165V27.6347C89.9436 28.4992 89.8364 29.2823 89.6259 29.9805C89.4116 30.6787 89.0828 31.2698 88.6395 31.7574C88.1925 32.2414 87.631 32.6182 86.955 32.8841C86.2752 33.1501 85.4736 33.2831 84.5427 33.2831C83.6524 33.2831 82.8064 33.1686 82.0085 32.9433C81.2105 32.7179 80.4717 32.3042 79.7957 31.7057L81.2327 29.7515C81.7129 30.1911 82.2116 30.531 82.7288 30.7674C83.246 31.0075 83.8445 31.1257 84.5242 31.1257C85.0968 31.1257 85.577 31.0444 85.9723 30.8856C86.3639 30.7267 86.6779 30.5051 86.9106 30.228C87.1434 29.951 87.3096 29.6111 87.4093 29.2195C87.5091 28.8279 87.5608 28.392 87.5608 27.9118V27.2136H87.5202C87.1729 27.6791 86.7148 28.03 86.1422 28.259C85.5696 28.4918 84.986 28.61 84.3875 28.61C83.6708 28.61 83.017 28.4807 82.4333 28.2221C81.8496 27.9635 81.3472 27.6126 80.9261 27.173C80.5086 26.7333 80.1835 26.2162 79.9582 25.6177C79.7329 25.0192 79.6183 24.3802 79.6183 23.7041C79.6183 22.9985 79.7255 22.341 79.936 21.7277C80.1503 21.1145 80.4606 20.5825 80.8744 20.1319C81.2881 19.6812 81.7831 19.3228 82.3594 19.0642C82.9394 18.8056 83.6007 18.6763 84.3432 18.6763C85.0229 18.6763 85.6546 18.8093 86.2383 19.0753C86.822 19.3413 87.2874 19.7661 87.6347 20.3535H87.6753V18.9165H89.9436ZM84.8345 20.8301C84.4097 20.8301 84.0218 20.9002 83.6782 21.0406C83.331 21.181 83.0354 21.3731 82.7916 21.6206C82.5441 21.8681 82.352 22.1673 82.2116 22.5183C82.0713 22.8692 82.0011 23.2608 82.0011 23.6857C82.0011 24.0698 82.0713 24.4319 82.2116 24.7643C82.352 25.0968 82.5478 25.3887 82.799 25.6436C83.0502 25.8948 83.3494 26.0943 83.6967 26.242C84.044 26.3898 84.4134 26.46 84.8123 26.46C85.2519 26.46 85.6472 26.3861 85.9982 26.242C86.3491 26.0943 86.6483 25.8985 86.8959 25.6546C87.1434 25.4071 87.3318 25.1116 87.4648 24.768C87.5978 24.4208 87.6642 24.0514 87.6642 23.6524C87.6642 22.8138 87.413 22.1378 86.9069 21.6169C86.4045 21.0886 85.7137 20.8301 84.8345 20.8301ZM94.4615 24.539C94.5428 25.2557 94.8199 25.8172 95.3001 26.2162C95.7803 26.6151 96.3566 26.8146 97.0364 26.8146C97.6348 26.8146 98.1372 26.6927 98.5436 26.4452C98.95 26.1977 99.3046 25.8911 99.6112 25.518L101.325 26.8146C100.767 27.5054 100.143 28.0004 99.4487 28.2923C98.7579 28.5841 98.0338 28.7319 97.2728 28.7319C96.5561 28.7319 95.8764 28.6137 95.2373 28.3736C94.5982 28.1334 94.0478 27.7936 93.5823 27.3577C93.1168 26.9181 92.7474 26.3898 92.4741 25.7729C92.2007 25.1559 92.064 24.4651 92.064 23.7078C92.064 22.9505 92.2007 22.2597 92.4741 21.6428C92.7474 21.0258 93.1168 20.4939 93.5823 20.058C94.0478 19.6184 94.5982 19.2785 95.2373 19.0421C95.8764 18.802 96.5524 18.6837 97.2728 18.6837C97.9377 18.6837 98.5473 18.802 99.0977 19.0347C99.6482 19.2674 100.121 19.6036 100.513 20.0432C100.904 20.4828 101.211 21.0258 101.429 21.6686C101.647 22.3151 101.758 23.0539 101.758 23.8925V24.5501H94.4615V24.539ZM99.3674 22.7436C99.3526 22.038 99.1347 21.4839 98.7098 21.0776C98.285 20.6712 97.6939 20.468 96.9329 20.468C96.2163 20.468 95.6474 20.6749 95.2262 21.085C94.8088 21.4987 94.5502 22.0491 94.4578 22.7399H99.3674V22.7436ZM104.033 18.9165H106.309V20.4532H106.349C106.575 19.973 106.922 19.5593 107.387 19.2046C107.853 18.8537 108.485 18.6763 109.283 18.6763C109.922 18.6763 110.461 18.7835 110.908 18.994C111.355 19.2083 111.717 19.4854 111.994 19.8326C112.275 20.1799 112.474 20.5788 112.593 21.0295C112.711 21.4802 112.774 21.9531 112.774 22.4444V28.4881H110.38V23.6413C110.38 23.3753 110.365 23.0798 110.339 22.7547C110.313 22.4296 110.243 22.123 110.129 21.8386C110.014 21.5541 109.84 21.314 109.6 21.1219C109.36 20.9298 109.035 20.8337 108.621 20.8337C108.222 20.8337 107.886 20.9002 107.613 21.0332C107.339 21.1662 107.114 21.3472 106.933 21.5726C106.752 21.7979 106.623 22.0565 106.545 22.3521C106.464 22.6439 106.427 22.9505 106.427 23.2682V28.4955H104.033V18.9165ZM120.805 21.5689C120.339 20.9187 119.715 20.5899 118.928 20.5899C118.61 20.5899 118.296 20.6712 117.99 20.8301C117.683 20.9889 117.532 21.2475 117.532 21.6095C117.532 21.9014 117.657 22.1156 117.912 22.2486C118.163 22.3816 118.485 22.4961 118.869 22.5885C119.253 22.6808 119.671 22.7769 120.118 22.8766C120.565 22.9764 120.978 23.1278 121.366 23.3347C121.75 23.5416 122.072 23.8223 122.323 24.1807C122.574 24.539 122.703 25.0303 122.703 25.6583C122.703 26.2309 122.582 26.7112 122.334 27.1065C122.087 27.498 121.769 27.8157 121.377 28.0522C120.986 28.2923 120.542 28.4659 120.051 28.5694C119.56 28.6765 119.068 28.7282 118.573 28.7282C117.827 28.7282 117.144 28.6211 116.519 28.4105C115.895 28.1962 115.337 27.812 114.842 27.2542L116.438 25.7581C116.745 26.1053 117.074 26.3861 117.425 26.6077C117.775 26.8257 118.204 26.9365 118.71 26.9365C118.884 26.9365 119.061 26.9181 119.249 26.8774C119.434 26.8368 119.608 26.7703 119.767 26.6779C119.925 26.5856 120.055 26.4674 120.155 26.327C120.254 26.1866 120.302 26.0241 120.302 25.8394C120.302 25.5069 120.177 25.2594 119.922 25.1005C119.671 24.9417 119.349 24.8124 118.965 24.7126C118.581 24.6129 118.163 24.5205 117.716 24.4319C117.269 24.3469 116.856 24.2065 116.468 24.0144C116.084 23.8223 115.762 23.5527 115.511 23.2054C115.26 22.8582 115.13 22.3816 115.13 21.7684C115.13 21.2364 115.241 20.7746 115.459 20.3831C115.677 19.9915 115.969 19.6701 116.327 19.4152C116.686 19.164 117.099 18.9756 117.565 18.8574C118.03 18.7391 118.503 18.6763 118.98 18.6763C119.619 18.6763 120.251 18.7872 120.875 19.0051C121.499 19.2231 122.005 19.5999 122.389 20.1319L120.805 21.5689ZM46.0161 36.6079C46.0161 36.2237 46.1602 35.8875 46.4446 35.5994C46.7291 35.3149 47.0911 35.1708 47.5307 35.1708C47.9703 35.1708 48.3397 35.3075 48.639 35.5809C48.9382 35.8543 49.0897 36.1978 49.0897 36.6079C49.0897 37.0179 48.9382 37.3615 48.639 37.6349C48.3397 37.9082 47.9703 38.0449 47.5307 38.0449C47.0911 38.0449 46.7291 37.9008 46.4446 37.6164C46.1602 37.3282 46.0161 36.9921 46.0161 36.6079ZM46.356 39.8588H48.7498V49.4341H46.356V39.8588ZM51.7162 39.8588H53.9918V41.3955H54.0325C54.2578 40.9153 54.6051 40.5015 55.0705 40.1469C55.536 39.796 56.1677 39.6186 56.9656 39.6186C57.6047 39.6186 58.1441 39.7258 58.5911 39.9363C59.0381 40.1506 59.4001 40.4277 59.6772 40.7749C59.9579 41.1222 60.1574 41.5211 60.2756 41.9718C60.3938 42.4225 60.4566 42.8954 60.4566 43.3867V49.4304H58.0628V44.5836C58.0628 44.3176 58.048 44.0221 58.0222 43.697C57.9963 43.3719 57.9261 43.0653 57.8116 42.7808C57.6971 42.4964 57.5235 42.2563 57.2833 42.0642C57.0432 41.8721 56.7181 41.776 56.3044 41.776C55.9054 41.776 55.5693 41.8425 55.2959 41.9755C55.0225 42.1085 54.7972 42.2895 54.6162 42.5149C54.4351 42.7402 54.3058 42.9988 54.2283 43.2943C54.147 43.5862 54.1101 43.8928 54.1101 44.2105V49.4377H51.7162V39.8588ZM68.074 42.5112C67.6086 41.861 66.9843 41.5322 66.1974 41.5322C65.8797 41.5322 65.5657 41.6135 65.2591 41.7723C64.9525 41.9312 64.801 42.1898 64.801 42.5518C64.801 42.8436 64.9266 43.0579 65.1815 43.1909C65.4327 43.3239 65.7541 43.4384 66.1383 43.5308C66.5225 43.6231 66.9399 43.7192 67.3869 43.8189C67.8339 43.9186 68.2477 44.0701 68.6355 44.277C69.0197 44.4839 69.3411 44.7646 69.5923 45.123C69.8435 45.4813 69.9728 45.9726 69.9728 46.6006C69.9728 47.1732 69.8509 47.6535 69.6034 48.0487C69.3559 48.4403 69.0382 48.758 68.6466 48.9944C68.255 49.2346 67.8117 49.4082 67.3204 49.5116C66.8291 49.6188 66.3378 49.6705 65.8428 49.6705C65.0965 49.6705 64.4131 49.5633 63.7888 49.3528C63.1645 49.1385 62.6067 48.7543 62.1116 48.1965L63.7075 46.7004C64.0141 47.0476 64.3429 47.3284 64.6939 47.55C65.0448 47.768 65.4733 47.8788 65.9794 47.8788C66.1531 47.8788 66.3304 47.8603 66.5188 47.8197C66.7035 47.7791 66.8771 47.7126 67.036 47.6202C67.1948 47.5279 67.3241 47.4096 67.4239 47.2693C67.5236 47.1289 67.5716 46.9663 67.5716 46.7816C67.5716 46.4492 67.446 46.2017 67.1911 46.0428C66.9399 45.884 66.6185 45.7547 66.2343 45.6549C65.8501 45.5552 65.4327 45.4628 64.9857 45.3742C64.5387 45.2892 64.125 45.1488 63.7371 44.9567C63.3529 44.7646 63.0315 44.4949 62.7803 44.1477C62.5291 43.8004 62.3998 43.3239 62.3998 42.7107C62.3998 42.1787 62.5106 41.7169 62.7286 41.3253C62.9465 40.9338 63.2384 40.6124 63.5967 40.3575C63.955 40.1063 64.3688 39.9179 64.8342 39.7996C65.2997 39.6814 65.7726 39.6186 66.2491 39.6186C66.8882 39.6186 67.5199 39.7295 68.1442 39.9474C68.7685 40.1654 69.2746 40.5422 69.6588 41.0741L68.074 42.5112ZM70.9038 41.8942V39.8588H72.6954V37.0844H75.0893V39.8588H77.7232V41.8942H75.0893V46.0834C75.0893 46.5637 75.1779 46.9405 75.3589 47.2212C75.54 47.502 75.8946 47.6387 76.4266 47.6387C76.6408 47.6387 76.8736 47.6165 77.1248 47.5685C77.376 47.5205 77.5755 47.4466 77.7232 47.3395V49.3528C77.472 49.471 77.1617 49.556 76.796 49.6003C76.4303 49.6483 76.1089 49.6705 75.8281 49.6705C75.189 49.6705 74.6681 49.6003 74.2618 49.4599C73.8554 49.3195 73.5377 49.109 73.305 48.8208C73.0723 48.5364 72.9134 48.178 72.8247 47.7532C72.7398 47.3284 72.6954 46.837 72.6954 46.2755V41.8869H70.9038V41.8942ZM79.7329 36.6079C79.7329 36.2237 79.8769 35.8875 80.1614 35.5994C80.4458 35.3149 80.8079 35.1708 81.2475 35.1708C81.6871 35.1708 82.0565 35.3075 82.3557 35.5809C82.6549 35.8543 82.8064 36.1978 82.8064 36.6079C82.8064 37.0179 82.6549 37.3615 82.3557 37.6349C82.0565 37.9082 81.6871 38.0449 81.2475 38.0449C80.8079 38.0449 80.4458 37.9008 80.1614 37.6164C79.8769 37.3282 79.7329 36.9921 79.7329 36.6079ZM80.0727 39.8588H82.4665V49.4341H80.0727V39.8588ZM84.6498 41.8942V39.8588H86.4415V37.0844H88.8353V39.8588H91.4692V41.8942H88.8353V46.0834C88.8353 46.5637 88.924 46.9405 89.105 47.2212C89.286 47.502 89.6406 47.6387 90.1726 47.6387C90.3869 47.6387 90.6196 47.6165 90.8708 47.5685C91.122 47.5205 91.3215 47.4466 91.4692 47.3395V49.3528C91.218 49.471 90.9077 49.556 90.542 49.6003C90.1763 49.6483 89.8549 49.6705 89.5741 49.6705C88.935 49.6705 88.4142 49.6003 88.0078 49.4599C87.6014 49.3195 87.2837 49.109 87.051 48.8208C86.8183 48.5364 86.6594 48.178 86.5708 47.7532C86.4858 47.3284 86.4415 46.837 86.4415 46.2755V41.8869H84.6498V41.8942ZM102.663 49.4341H100.387V47.8973H100.346C100.121 48.3775 99.7738 48.7913 99.3083 49.1459C98.8428 49.4969 98.2111 49.6742 97.4132 49.6742C96.7741 49.6742 96.231 49.5707 95.7877 49.3639C95.3407 49.157 94.9787 48.8799 94.7016 48.5253C94.4209 48.1743 94.2214 47.7717 94.1032 47.3173C93.985 46.8666 93.9222 46.3937 93.9222 45.9024V39.8588H96.316V44.7055C96.316 44.9715 96.3308 45.267 96.3566 45.5921C96.3825 45.9172 96.4527 46.2238 96.5672 46.5083C96.6817 46.7927 96.8517 47.0328 97.0844 47.2249C97.3171 47.417 97.6459 47.5131 98.0707 47.5131C98.4697 47.5131 98.8059 47.4466 99.0792 47.3136C99.3526 47.1806 99.578 46.9996 99.759 46.7742C99.94 46.5489 100.069 46.2903 100.147 45.9948C100.228 45.7029 100.265 45.3963 100.265 45.0786V39.8514H102.659V49.4341H102.663ZM114.078 49.4341H111.802V47.8973H111.761C111.536 48.3775 111.189 48.7913 110.723 49.1459C110.258 49.4969 109.626 49.6742 108.828 49.6742C108.189 49.6742 107.646 49.5707 107.203 49.3639C106.756 49.157 106.394 48.8799 106.117 48.5253C105.836 48.1743 105.636 47.7717 105.518 47.3173C105.4 46.8666 105.337 46.3937 105.337 45.9024V39.8588H107.731V44.7055C107.731 44.9715 107.746 45.267 107.772 45.5921C107.797 45.9172 107.868 46.2238 107.982 46.5083C108.097 46.7927 108.267 47.0328 108.499 47.2249C108.732 47.417 109.061 47.5131 109.486 47.5131C109.885 47.5131 110.221 47.4466 110.494 47.3136C110.768 47.1806 110.993 46.9996 111.174 46.7742C111.355 46.5489 111.484 46.2903 111.562 45.9948C111.643 45.7029 111.68 45.3963 111.68 45.0786V39.8514H114.078V49.4341ZM116.109 41.8942V39.8588H117.901V37.0844H120.295V39.8588H122.929V41.8942H120.295V46.0834C120.295 46.5637 120.384 46.9405 120.565 47.2212C120.746 47.502 121.1 47.6387 121.632 47.6387C121.846 47.6387 122.079 47.6165 122.33 47.5685C122.582 47.5205 122.781 47.4466 122.929 47.3395V49.3528C122.678 49.471 122.367 49.556 122.002 49.6003C121.636 49.6483 121.314 49.6705 121.034 49.6705C120.395 49.6705 119.874 49.6003 119.467 49.4599C119.061 49.3195 118.743 49.109 118.511 48.8208C118.278 48.5364 118.119 48.178 118.03 47.7532C117.945 47.3284 117.901 46.837 117.901 46.2755V41.8869H116.109V41.8942Z"
    fill="currentColor" />
</svg>